<?xml version="1.0" encoding="utf-8"?>
<!-- Generator: Adobe Illustrator 18.1.1, SVG Export Plug-In . SVG Version: 6.00 Build 0)  -->
<svg version="1.1" xmlns="http://www.w3.org/2000/svg" xmlns:xlink="http://www.w3.org/1999/xlink" x="0px" y="0px"
	 viewBox="0 0 321.018 226.093" enable-background="new 0 0 321.018 226.093" xml:space="preserve">
<g id="Layer_1" display="none">
	<path display="inline" fill="#666F71" d="M36.036,106.676L8.755,93.04l12.25-6.166l27.365,13.636L36.036,106.676z M34.211,145.513
		L6.326,131.527V95.906l27.886,13.986V145.513z M36.036,79.401L63.393,93.04l-10.94,5.47L25.175,84.785L36.036,79.401z
		 M70.261,89.568L37.429,73.232c-0.879-0.434-1.827-0.521-2.787,0L2.148,89.473c-1.127,0.438-1.992,1.567-1.992,2.867v41.098
		c0,1.126,0.603,2.172,1.73,2.692l32.756,16.42c0.867,0.432,1.908,0.432,2.787,0l32.575-16.245c1.125-0.433,1.909-1.568,1.909-2.867
		V92.341C71.912,91.215,71.305,90.172,70.261,89.568"/>
	<path display="inline" fill="#666F71" d="M119.071,106.676L91.79,93.04l12.25-6.166l27.365,13.636L119.071,106.676z
		 M117.247,145.513l-27.886-13.985V95.906l27.886,13.986V145.513z M119.071,79.401l27.357,13.639l-10.94,5.47L108.21,84.785
		L119.071,79.401z M153.296,89.568l-32.832-16.335c-0.879-0.434-1.827-0.521-2.787,0L85.184,89.473
		c-1.127,0.438-1.992,1.567-1.992,2.867v41.098c0,1.126,0.603,2.172,1.73,2.692l32.756,16.42c0.867,0.432,1.908,0.432,2.787,0
		l32.575-16.245c1.125-0.433,1.909-1.568,1.909-2.867V92.341C154.947,91.215,154.34,90.172,153.296,89.568"/>
	<path display="inline" fill="#666F71" d="M202.106,106.676L174.825,93.04l12.25-6.166l27.365,13.636L202.106,106.676z
		 M200.282,145.513l-27.886-13.985V95.906l27.886,13.986V145.513z M202.106,79.401l27.357,13.639l-10.94,5.47l-27.278-13.724
		L202.106,79.401z M236.331,89.568l-32.832-16.335c-0.879-0.434-1.827-0.521-2.787,0l-32.493,16.241
		c-1.127,0.438-1.992,1.567-1.992,2.867v41.098c0,1.126,0.603,2.172,1.73,2.692l32.756,16.42c0.867,0.432,1.908,0.432,2.787,0
		l32.575-16.245c1.125-0.433,1.909-1.568,1.909-2.867V92.341C237.982,91.215,237.375,90.172,236.331,89.568"/>
	<path display="inline" fill="#666F71" d="M285.142,106.676L257.861,93.04l12.25-6.166l27.365,13.636L285.142,106.676z
		 M283.317,145.513l-27.886-13.985V95.906l27.886,13.986V145.513z M285.142,79.401l27.357,13.639l-10.94,5.47l-27.278-13.724
		L285.142,79.401z M319.367,89.568l-32.832-16.335c-0.879-0.434-1.827-0.521-2.787,0l-32.493,16.241
		c-1.127,0.438-1.992,1.567-1.992,2.867v41.098c0,1.126,0.603,2.172,1.73,2.692l32.756,16.42c0.867,0.432,1.908,0.432,2.787,0
		l32.575-16.245c1.125-0.433,1.909-1.568,1.909-2.867V92.341C321.018,91.215,320.411,90.172,319.367,89.568"/>
	<path display="inline" fill="#666F71" d="M77.865,33.803L50.585,20.166L62.834,14l27.365,13.636L77.865,33.803z M76.041,72.64
		L48.156,58.654V23.033l27.886,13.986V72.64z M77.865,6.528l27.357,13.639l-10.94,5.47L67.004,11.912L77.865,6.528z M112.09,16.694
		L79.258,0.359c-0.879-0.434-1.827-0.52-2.787,0L43.978,16.6c-1.127,0.438-1.992,1.567-1.992,2.867v41.098
		c0,1.126,0.603,2.172,1.73,2.692l32.756,16.42c0.867,0.432,1.908,0.432,2.787,0l32.575-16.245c1.125-0.433,1.909-1.568,1.909-2.867
		V19.467C113.742,18.341,113.134,17.299,112.09,16.694"/>
	<path display="inline" fill="#666F71" d="M77.865,179.895l-27.281-13.636l12.25-6.166l27.365,13.636L77.865,179.895z
		 M76.041,218.732l-27.886-13.985v-35.621l27.886,13.986V218.732z M77.865,152.62l27.357,13.639l-10.94,5.47l-27.278-13.724
		L77.865,152.62z M112.09,162.786l-32.832-16.335c-0.879-0.434-1.827-0.521-2.787,0l-32.493,16.241
		c-1.127,0.438-1.992,1.567-1.992,2.867v41.098c0,1.126,0.603,2.172,1.73,2.692l32.756,16.42c0.867,0.432,1.908,0.432,2.787,0
		l32.575-16.245c1.125-0.433,1.909-1.568,1.909-2.867V165.56C113.742,164.434,113.134,163.391,112.09,162.786"/>
	<path display="inline" fill="#666F71" d="M161.057,33.803l-27.281-13.636L146.026,14l27.365,13.636L161.057,33.803z M159.233,72.64
		l-27.886-13.985V23.033l27.886,13.986V72.64z M161.057,6.528l27.357,13.639l-10.94,5.47l-27.278-13.724L161.057,6.528z
		 M195.282,16.694L162.45,0.359c-0.879-0.434-1.827-0.52-2.787,0L127.17,16.6c-1.127,0.438-1.992,1.567-1.992,2.867v41.098
		c0,1.126,0.603,2.172,1.73,2.692l32.756,16.42c0.867,0.432,1.908,0.432,2.787,0l32.575-16.245c1.125-0.433,1.909-1.568,1.909-2.867
		V19.467C196.933,18.341,196.326,17.299,195.282,16.694"/>
	<path display="inline" fill="#666F71" d="M244.248,33.803l-27.281-13.636L229.217,14l27.365,13.636L244.248,33.803z M242.424,72.64
		l-27.886-13.985V23.033l27.886,13.986V72.64z M244.248,6.528l27.357,13.639l-10.94,5.47l-27.278-13.724L244.248,6.528z
		 M278.473,16.694L245.641,0.359c-0.879-0.434-1.827-0.52-2.787,0L210.361,16.6c-1.127,0.438-1.992,1.567-1.992,2.867v41.098
		c0,1.126,0.603,2.172,1.73,2.692l32.756,16.42c0.867,0.432,1.908,0.432,2.787,0l32.575-16.245c1.125-0.433,1.909-1.568,1.909-2.867
		V19.467C280.124,18.341,279.517,17.299,278.473,16.694"/>
	<path display="inline" fill="#666F71" d="M161.057,179.895l-27.281-13.636l12.25-6.166l27.365,13.636L161.057,179.895z
		 M159.233,218.732l-27.886-13.985v-35.621l27.886,13.986V218.732z M161.057,152.62l27.357,13.639l-10.94,5.47l-27.278-13.724
		L161.057,152.62z M195.282,162.786l-32.832-16.335c-0.879-0.434-1.827-0.521-2.787,0l-32.493,16.241
		c-1.127,0.438-1.992,1.567-1.992,2.867v41.098c0,1.126,0.603,2.172,1.73,2.692l32.756,16.42c0.867,0.432,1.908,0.432,2.787,0
		l32.575-16.245c1.125-0.433,1.909-1.568,1.909-2.867V165.56C196.933,164.434,196.326,163.391,195.282,162.786"/>
	<path display="inline" fill="#666F71" d="M244.248,179.895l-27.281-13.636l12.25-6.166l27.365,13.636L244.248,179.895z
		 M242.424,218.732l-27.886-13.985v-35.621l27.886,13.986V218.732z M244.248,152.62l27.357,13.639l-10.94,5.47l-27.278-13.724
		L244.248,152.62z M278.473,162.786l-32.832-16.335c-0.879-0.434-1.827-0.521-2.787,0l-32.493,16.241
		c-1.127,0.438-1.992,1.567-1.992,2.867v41.098c0,1.126,0.603,2.172,1.73,2.692l32.756,16.42c0.867,0.432,1.908,0.432,2.787,0
		l32.575-16.245c1.125-0.433,1.909-1.568,1.909-2.867V165.56C280.124,164.434,279.517,163.391,278.473,162.786"/>
	<g display="inline">
		<path fill="none" stroke="#666F71" stroke-width="2" stroke-miterlimit="10" d="M61.525,53.208c0,0.55-0.399,0.792-0.887,0.539
			l-7.892-4.105c-0.488-0.254-0.887-0.911-0.887-1.461V31.746c0-0.55,0.401-0.796,0.892-0.547l7.883,4.003
			c0.49,0.249,0.892,0.903,0.892,1.453V53.208z"/>
	</g>
	<g display="inline">
		<path fill="none" stroke="#666F71" stroke-width="2" stroke-miterlimit="10" d="M61.525,53.208c0,0.55-0.399,0.792-0.887,0.539
			l-7.892-4.105c-0.488-0.254-0.887-0.911-0.887-1.461V31.746c0-0.55,0.401-0.796,0.892-0.547l7.883,4.003
			c0.49,0.249,0.892,0.903,0.892,1.453V53.208z"/>
	</g>
</g>
<g id="Layer_2">
	<g>
		<g id="XMLID_1_">
			<g>
				<path fill="#FFFFFF" d="M252.585,111.525v13.65l-6.27-3.27c-0.14-0.07-0.3-0.34-0.3-0.49v-13.56l6.28,3.19
					C252.425,111.115,252.585,111.375,252.585,111.525z"/>
				<path fill="#FFFFFF" d="M217.515,174.325v13.64l-6.27-3.27c-0.14-0.07-0.3-0.34-0.3-0.49v-13.55l6.28,3.18
					C217.355,173.905,217.515,174.175,217.515,174.325z"/>
				<path fill="#FFFFFF" d="M146.175,174.325v13.64l-6.28-3.27c-0.13-0.07-0.3-0.34-0.3-0.49v-13.55l6.28,3.18
					C146.015,173.905,146.175,174.175,146.175,174.325z"/>
				<path fill="#FFFFFF" d="M74.825,174.325v13.64l-6.27-3.27c-0.14-0.07-0.3-0.34-0.3-0.49v-13.55l6.28,3.18
					C74.665,173.905,74.825,174.175,74.825,174.325z"/>
				<path fill="#FFFFFF" d="M110.165,111.525v13.65l-6.27-3.27c-0.14-0.07-0.3-0.34-0.3-0.49v-13.56l6.28,3.19
					C110.005,111.115,110.165,111.375,110.165,111.525z"/>
				<path fill="#FFFFFF" d="M181.515,111.525v13.64l-6.28-3.26c-0.13-0.07-0.3-0.34-0.3-0.49v-13.56l6.28,3.19
					C181.345,111.115,181.515,111.375,181.515,111.525z"/>
				<path fill="#FFFFFF" d="M217.515,49.035v13.64l-6.27-3.27c-0.14-0.07-0.3-0.34-0.3-0.49v-13.55l6.28,3.19
					C217.355,48.615,217.515,48.885,217.515,49.035z"/>
				<path fill="#FFFFFF" d="M146.175,49.035v13.64l-6.28-3.27c-0.13-0.07-0.3-0.34-0.3-0.49v-13.55l6.28,3.19
					C146.015,48.615,146.175,48.885,146.175,49.035z"/>
				<path fill="#FFFFFF" d="M74.825,49.035v13.64l-6.27-3.27c-0.14-0.07-0.3-0.34-0.3-0.49v-13.55l6.28,3.19
					C74.665,48.615,74.825,48.885,74.825,49.035z"/>
				<path fill="#FFFFFF" d="M38.825,111.525v13.65l-6.28-3.27c-0.13-0.07-0.3-0.34-0.3-0.49v-13.56l6.28,3.19
					C38.655,111.115,38.825,111.375,38.825,111.525z"/>
				<polygon fill="#C3996B" points="113.165,34.895 103.775,39.585 80.385,27.815 89.705,23.195 				"/>
				<polygon fill="#C3996B" points="100.275,41.295 89.705,46.585 66.305,34.895 76.805,29.605 				"/>
				<path fill="#C3996B" d="M64.225,67.895v-30.54l23.91,11.99v30.55L64.225,67.895z M66.535,58.915c0,0.79,0.53,1.65,1.23,2.02
					l6.77,3.52c0.23,0.12,0.47,0.18,0.71,0.18c0.75,0,1.3-0.59,1.3-1.41v-14.19c0-0.79-0.53-1.66-1.23-2.01l-6.77-3.44
					c-0.23-0.11-0.46-0.17-0.7-0.17c-0.74,0-1.31,0.6-1.31,1.41V58.915z"/>
				<polygon fill="#C3996B" points="77.155,97.385 67.775,102.075 44.375,90.305 53.695,85.695 				"/>
				<polygon fill="#C3996B" points="64.275,103.795 53.695,109.085 30.295,97.385 40.805,92.095 				"/>
				<path fill="#C3996B" d="M30.535,121.415c0,0.78,0.52,1.65,1.22,2.01l6.77,3.52c0.23,0.12,0.47,0.19,0.71,0.19
					c0.75,0,1.3-0.6,1.3-1.41v-14.2c0-0.79-0.53-1.65-1.23-2.01l-6.76-3.43c-0.23-0.12-0.47-0.18-0.7-0.18
					c-0.76,0-1.31,0.6-1.31,1.41V121.415z M28.215,130.395v-30.55l23.91,12v30.54L28.215,130.395z"/>
				<path fill="#C3996B" d="M64.225,193.185v-30.55l23.91,12v30.55L64.225,193.185z M66.535,184.205c0,0.79,0.53,1.65,1.23,2.01
					l6.76,3.52c0.24,0.13,0.48,0.19,0.72,0.19c0.75,0,1.3-0.59,1.3-1.41v-14.19c0-0.79-0.53-1.66-1.23-2.02l-6.77-3.43
					c-0.23-0.11-0.46-0.17-0.7-0.17c-0.76,0-1.31,0.59-1.31,1.41V184.205z"/>
				<polygon fill="#C3996B" points="113.165,160.185 103.775,164.875 80.385,153.105 89.705,148.485 				"/>
				<polygon fill="#C3996B" points="100.275,166.585 89.705,171.875 66.305,160.185 76.805,154.895 				"/>
				<polygon fill="#C3996B" points="184.505,160.185 175.125,164.875 151.735,153.105 161.045,148.485 				"/>
				<polygon fill="#C3996B" points="171.625,166.585 161.045,171.875 137.645,160.185 148.155,154.895 				"/>
				<path fill="#C3996B" d="M135.565,193.185v-30.55l23.92,12v30.55L135.565,193.185z M137.885,184.205c0,0.79,0.53,1.65,1.22,2.01
					l6.77,3.52c0.23,0.13,0.47,0.19,0.71,0.19c0.76,0,1.3-0.59,1.3-1.41v-14.19c0-0.79-0.53-1.66-1.23-2.02l-6.76-3.43
					c-0.23-0.11-0.47-0.17-0.7-0.17c-0.76,0-1.31,0.59-1.31,1.41V184.205z"/>
				<polygon fill="#C3996B" points="255.855,160.185 246.465,164.875 223.075,153.105 232.395,148.485 				"/>
				<polygon fill="#C3996B" points="242.965,166.585 232.395,171.875 208.995,160.185 219.495,154.895 				"/>
				<path fill="#C3996B" d="M206.915,193.185v-30.55l23.91,12v30.55L206.915,193.185z M209.225,184.205c0,0.79,0.53,1.65,1.23,2.01
					l6.77,3.52c0.23,0.13,0.47,0.19,0.71,0.19c0.75,0,1.3-0.59,1.3-1.41v-14.19c0-0.79-0.53-1.66-1.23-2.02l-6.77-3.43
					c-0.23-0.11-0.46-0.17-0.7-0.17c-0.74,0-1.31,0.6-1.31,1.41V184.205z"/>
				<path fill="#C3996B" d="M241.985,130.395v-30.55l23.91,12v30.54L241.985,130.395z M244.295,121.415c0,0.78,0.53,1.65,1.23,2.01
					l6.77,3.52c0.23,0.12,0.47,0.19,0.71,0.19c0.75,0,1.3-0.6,1.3-1.41v-14.2c0-0.79-0.53-1.65-1.23-2.01l-6.77-3.43
					c-0.23-0.12-0.46-0.18-0.7-0.18c-0.74,0-1.31,0.61-1.31,1.41V121.415z"/>
				<polygon fill="#C3996B" points="290.925,97.385 281.535,102.075 258.145,90.305 267.465,85.695 				"/>
				<polygon fill="#C3996B" points="278.035,103.795 267.465,109.085 244.065,97.385 254.565,92.095 				"/>
				<polygon fill="#C3996B" points="255.855,34.895 246.465,39.585 223.075,27.815 232.395,23.195 				"/>
				<path fill="#C3996B" d="M206.915,67.895v-30.54l23.91,11.99v30.55L206.915,67.895z M209.225,58.915c0,0.79,0.53,1.65,1.23,2.02
					l6.77,3.52c0.23,0.12,0.47,0.18,0.71,0.18c0.75,0,1.3-0.59,1.3-1.41v-14.19c0-0.79-0.53-1.66-1.23-2.01l-6.77-3.44
					c-0.23-0.11-0.46-0.17-0.7-0.17c-0.74,0-1.31,0.6-1.31,1.41V58.915z"/>
				<polygon fill="#C3996B" points="242.965,41.295 232.395,46.585 208.995,34.895 219.495,29.605 				"/>
				<polygon fill="#C3996B" points="184.505,34.895 175.125,39.585 151.735,27.815 161.045,23.195 				"/>
				<polygon fill="#C3996B" points="171.625,41.295 161.045,46.585 137.645,34.895 148.155,29.605 				"/>
				<path fill="#C3996B" d="M135.565,67.895v-30.54l23.92,11.99v30.55L135.565,67.895z M137.885,58.915c0,0.79,0.52,1.65,1.22,2.02
					l6.77,3.52c0.23,0.12,0.47,0.18,0.71,0.18c0.76,0,1.3-0.59,1.3-1.41v-14.19c0-0.79-0.53-1.66-1.23-2.01l-6.76-3.44
					c-0.23-0.11-0.47-0.17-0.7-0.17c-0.75,0-1.31,0.6-1.31,1.41V58.915z"/>
				<polygon fill="#C3996B" points="148.495,97.385 139.115,102.075 115.725,90.305 125.035,85.695 				"/>
				<polygon fill="#C3996B" points="135.615,103.795 125.035,109.085 101.645,97.385 112.145,92.095 				"/>
				<path fill="#C3996B" d="M99.555,130.395v-30.55l23.92,12v30.54L99.555,130.395z M101.875,121.415c0,0.78,0.53,1.65,1.22,2.01
					l6.77,3.52c0.24,0.12,0.48,0.19,0.71,0.19c0.76,0,1.31-0.6,1.31-1.41v-14.2c0-0.79-0.53-1.65-1.24-2.01l-6.76-3.43
					c-0.23-0.12-0.46-0.18-0.7-0.18c-0.76,0-1.31,0.6-1.31,1.41V121.415z"/>
				<polygon fill="#C3996B" points="219.845,97.385 210.465,102.075 187.065,90.305 196.385,85.695 				"/>
				<polygon fill="#C3996B" points="206.965,103.795 196.385,109.085 172.985,97.385 183.495,92.095 				"/>
				<path fill="#C3996B" d="M170.905,130.395v-30.55l23.91,12v30.54L170.905,130.395z M173.225,121.415c0,0.78,0.52,1.65,1.22,2.01
					l6.77,3.52c0.23,0.12,0.47,0.19,0.71,0.19c0.75,0,1.3-0.6,1.3-1.41v-14.2c0-0.79-0.53-1.65-1.23-2.01l-6.76-3.43
					c-0.23-0.12-0.47-0.18-0.7-0.18c-0.75,0-1.31,0.61-1.31,1.41V121.415z"/>
				<path fill="#A5692D" d="M298.225,96.785v35.25c0,1.11-0.67,2.09-1.63,2.46l-27.94,13.93c-0.75,0.37-1.65,0.37-2.39,0
					l-28.09-14.08c-0.97-0.45-1.48-1.35-1.48-2.31v-35.25c0-1.11,0.74-2.08,1.7-2.46l27.87-13.92c0.82-0.45,1.64-0.38,2.39,0
					l28.16,14.01C297.705,94.925,298.225,95.825,298.225,96.785z M281.535,102.075l9.39-4.69l-23.46-11.69l-9.32,4.61
					L281.535,102.075z M267.465,109.085l10.57-5.29l-23.47-11.7l-10.5,5.29L267.465,109.085z M265.895,142.385v-30.54l-23.91-12
					v30.55L265.895,142.385z"/>
				<path fill="#A5692D" d="M263.155,159.585v35.24c0,1.12-0.67,2.09-1.63,2.46l-27.94,13.93c-0.75,0.37-1.65,0.37-2.39,0
					l-28.09-14.08c-0.97-0.45-1.48-1.34-1.48-2.31v-35.24c0-1.12,0.74-2.09,1.7-2.46l27.87-13.93c0.82-0.45,1.64-0.37,2.39,0
					l28.16,14.01C262.635,157.725,263.155,158.615,263.155,159.585z M246.465,164.875l9.39-4.69l-23.46-11.7l-9.32,4.62
					L246.465,164.875z M232.395,171.875l10.57-5.29l-23.47-11.69l-10.5,5.29L232.395,171.875z M230.825,205.185v-30.55l-23.91-12
					v30.55L230.825,205.185z"/>
				<path fill="#A5692D" d="M263.155,34.295v35.24c0,1.12-0.67,2.09-1.63,2.46l-27.94,13.93c-0.75,0.37-1.65,0.37-2.39,0
					l-28.09-14.08c-0.97-0.44-1.48-1.34-1.48-2.31v-35.24c0-1.12,0.74-2.09,1.7-2.46l27.87-13.93c0.82-0.45,1.64-0.37,2.39,0
					l28.16,14.01C262.635,32.435,263.155,33.325,263.155,34.295z M246.465,39.585l9.39-4.69l-23.46-11.7l-9.32,4.62L246.465,39.585z
					 M232.395,46.585l10.57-5.29l-23.47-11.69l-10.5,5.29L232.395,46.585z M230.825,79.895v-30.55l-23.91-11.99v30.54
					L230.825,79.895z"/>
				<path fill="#A5692D" d="M252.585,125.175v-13.65c0-0.15-0.16-0.41-0.29-0.48l-6.28-3.19v13.56c0,0.15,0.16,0.42,0.3,0.49
					L252.585,125.175z M254.305,111.525v14.2c0,0.81-0.55,1.41-1.3,1.41c-0.24,0-0.48-0.07-0.71-0.19l-6.77-3.52
					c-0.7-0.36-1.23-1.23-1.23-2.01v-14.1c0-0.8,0.57-1.41,1.31-1.41c0.24,0,0.47,0.06,0.7,0.18l6.77,3.43
					C253.775,109.875,254.305,110.735,254.305,111.525z"/>
				<path fill="#A5692D" d="M227.155,96.785v35.25c0,1.11-0.68,2.09-1.64,2.46l-27.94,13.93c-0.75,0.37-1.64,0.37-2.39,0
					l-28.09-14.08c-0.97-0.45-1.48-1.35-1.48-2.31v-35.25c0-1.11,0.74-2.08,1.71-2.46l27.86-13.92c0.83-0.45,1.64-0.38,2.39,0
					l28.16,14.01C226.625,94.925,227.155,95.825,227.155,96.785z M210.465,102.075l9.38-4.69l-23.46-11.69l-9.32,4.61
					L210.465,102.075z M196.385,109.085l10.58-5.29l-23.47-11.7l-10.51,5.29L196.385,109.085z M194.815,142.385v-30.54l-23.91-12
					v30.55L194.815,142.385z"/>
				<path fill="#A5692D" d="M217.515,62.675v-13.64c0-0.15-0.16-0.42-0.29-0.48l-6.28-3.19v13.55c0,0.15,0.16,0.42,0.3,0.49
					L217.515,62.675z M219.235,49.035v14.19c0,0.82-0.55,1.41-1.3,1.41c-0.24,0-0.48-0.06-0.71-0.18l-6.77-3.52
					c-0.7-0.37-1.23-1.23-1.23-2.02v-14.09c0-0.81,0.57-1.41,1.31-1.41c0.24,0,0.47,0.06,0.7,0.17l6.77,3.44
					C218.705,47.375,219.235,48.245,219.235,49.035z"/>
				<path fill="#A5692D" d="M217.515,187.965v-13.64c0-0.15-0.16-0.42-0.29-0.49l-6.28-3.18v13.55c0,0.15,0.16,0.42,0.3,0.49
					L217.515,187.965z M219.235,174.325v14.19c0,0.82-0.55,1.41-1.3,1.41c-0.24,0-0.48-0.06-0.71-0.19l-6.77-3.52
					c-0.7-0.36-1.23-1.22-1.23-2.01v-14.09c0-0.81,0.57-1.41,1.31-1.41c0.24,0,0.47,0.06,0.7,0.17l6.77,3.43
					C218.705,172.665,219.235,173.535,219.235,174.325z"/>
				<path fill="#A5692D" d="M191.815,159.585v35.24c0,1.12-0.67,2.09-1.64,2.46l-27.93,13.93c-0.76,0.37-1.65,0.37-2.39,0
					l-28.1-14.08c-0.96-0.45-1.48-1.34-1.48-2.31v-35.24c0-1.12,0.74-2.09,1.71-2.46l27.87-13.93c0.82-0.45,1.63-0.37,2.39,0
					l28.15,14.01C191.295,157.725,191.815,158.615,191.815,159.585z M175.125,164.875l9.38-4.69l-23.46-11.7l-9.31,4.62
					L175.125,164.875z M161.045,171.875l10.58-5.29l-23.47-11.69l-10.51,5.29L161.045,171.875z M159.485,205.185v-30.55l-23.92-12
					v30.55L159.485,205.185z"/>
				<path fill="#A5692D" d="M191.815,34.295v35.24c0,1.12-0.67,2.09-1.64,2.46l-27.93,13.93c-0.76,0.37-1.65,0.37-2.39,0
					l-28.1-14.08c-0.96-0.44-1.48-1.34-1.48-2.31v-35.24c0-1.12,0.74-2.09,1.71-2.46l27.87-13.93c0.82-0.45,1.63-0.37,2.39,0
					l28.15,14.01C191.295,32.435,191.815,33.325,191.815,34.295z M175.125,39.585l9.38-4.69l-23.46-11.7l-9.31,4.62L175.125,39.585z
					 M161.045,46.585l10.58-5.29l-23.47-11.69l-10.51,5.29L161.045,46.585z M159.485,79.895v-30.55l-23.92-11.99v30.54
					L159.485,79.895z"/>
				<path fill="#A5692D" d="M181.515,125.165v-13.64c0-0.15-0.17-0.41-0.3-0.48l-6.28-3.19v13.56c0,0.15,0.17,0.42,0.3,0.49
					L181.515,125.165z M183.225,111.525v14.2c0,0.81-0.55,1.41-1.3,1.41c-0.24,0-0.48-0.07-0.71-0.19l-6.77-3.52
					c-0.7-0.36-1.22-1.23-1.22-2.01v-14.1c0-0.8,0.56-1.41,1.31-1.41c0.23,0,0.47,0.06,0.7,0.18l6.76,3.43
					C182.695,109.875,183.225,110.735,183.225,111.525z"/>
				<path fill="#A5692D" d="M155.805,96.785v35.25c0,1.11-0.67,2.09-1.64,2.46l-27.93,13.93c-0.76,0.37-1.65,0.37-2.39,0
					l-28.09-14.08c-0.97-0.45-1.49-1.35-1.49-2.31v-35.25c0-1.11,0.75-2.08,1.71-2.46l27.87-13.92c0.82-0.45,1.63-0.38,2.39,0
					l28.15,14.01C155.285,94.925,155.805,95.825,155.805,96.785z M139.115,102.075l9.38-4.69l-23.46-11.69l-9.31,4.61
					L139.115,102.075z M125.035,109.085l10.58-5.29l-23.47-11.7l-10.5,5.29L125.035,109.085z M123.475,142.385v-30.54l-23.92-12
					v30.55L123.475,142.385z"/>
				<path fill="#A5692D" d="M145.875,64.455l-6.77-3.52c-0.7-0.37-1.22-1.23-1.22-2.02v-14.09c0-0.81,0.56-1.41,1.31-1.41
					c0.23,0,0.47,0.06,0.7,0.17l6.76,3.44c0.7,0.35,1.23,1.22,1.23,2.01v14.19c0,0.82-0.54,1.41-1.3,1.41
					C146.345,64.635,146.105,64.575,145.875,64.455z M139.595,45.365v13.55c0,0.15,0.17,0.42,0.3,0.49l6.28,3.27v-13.64
					c0-0.15-0.16-0.42-0.3-0.48L139.595,45.365z"/>
				<path fill="#A5692D" d="M145.875,189.735l-6.77-3.52c-0.69-0.36-1.22-1.22-1.22-2.01v-14.09c0-0.82,0.55-1.41,1.31-1.41
					c0.23,0,0.47,0.06,0.7,0.17l6.76,3.43c0.7,0.36,1.23,1.23,1.23,2.02v14.19c0,0.82-0.54,1.41-1.3,1.41
					C146.345,189.925,146.105,189.865,145.875,189.735z M139.595,170.655v13.55c0,0.15,0.17,0.42,0.3,0.49l6.28,3.27v-13.64
					c0-0.15-0.16-0.42-0.3-0.49L139.595,170.655z"/>
				<path fill="#A5692D" d="M120.465,159.585v35.24c0,1.12-0.67,2.09-1.63,2.46l-27.94,13.93c-0.75,0.37-1.65,0.37-2.39,0
					l-28.09-14.08c-0.97-0.45-1.49-1.34-1.49-2.31v-35.24c0-1.12,0.75-2.09,1.71-2.46l27.87-13.93c0.82-0.45,1.64-0.37,2.39,0
					l28.16,14.01C119.945,157.725,120.465,158.615,120.465,159.585z M103.775,164.875l9.39-4.69l-23.46-11.7l-9.32,4.62
					L103.775,164.875z M89.705,171.875l10.57-5.29l-23.47-11.69l-10.5,5.29L89.705,171.875z M88.135,205.185v-30.55l-23.91-12v30.55
					L88.135,205.185z"/>
				<path fill="#A5692D" d="M120.465,34.295v35.24c0,1.12-0.67,2.09-1.63,2.46l-27.94,13.93c-0.75,0.37-1.65,0.37-2.39,0
					l-28.09-14.08c-0.97-0.44-1.49-1.34-1.49-2.31v-35.24c0-1.12,0.75-2.09,1.71-2.46l27.87-13.93c0.82-0.45,1.64-0.37,2.39,0
					l28.16,14.01C119.945,32.435,120.465,33.325,120.465,34.295z M103.775,39.585l9.39-4.69l-23.46-11.7l-9.32,4.62L103.775,39.585z
					 M89.705,46.585l10.57-5.29l-23.47-11.69l-10.5,5.29L89.705,46.585z M88.135,79.895v-30.55l-23.91-11.99v30.54L88.135,79.895z"
					/>
				<path fill="#A5692D" d="M110.165,125.175v-13.65c0-0.15-0.16-0.41-0.29-0.48l-6.28-3.19v13.56c0,0.15,0.16,0.42,0.3,0.49
					L110.165,125.175z M111.885,111.525v14.2c0,0.81-0.55,1.41-1.31,1.41c-0.23,0-0.47-0.07-0.71-0.19l-6.77-3.52
					c-0.69-0.36-1.22-1.23-1.22-2.01v-14.1c0-0.81,0.55-1.41,1.31-1.41c0.24,0,0.47,0.06,0.7,0.18l6.76,3.43
					C111.355,109.875,111.885,110.735,111.885,111.525z"/>
				<path fill="#A5692D" d="M84.465,96.785v35.25c0,1.11-0.68,2.09-1.64,2.46l-27.94,13.93c-0.75,0.37-1.64,0.37-2.39,0
					l-28.09-14.08c-0.97-0.45-1.48-1.35-1.48-2.31v-35.25c0-1.11,0.74-2.08,1.71-2.46l27.86-13.92c0.83-0.45,1.64-0.38,2.39,0
					l28.16,14.01C83.935,94.925,84.465,95.825,84.465,96.785z M67.775,102.075l9.38-4.69l-23.46-11.69l-9.32,4.61L67.775,102.075z
					 M53.695,109.085l10.58-5.29l-23.47-11.7l-10.51,5.29L53.695,109.085z M52.125,142.385v-30.54l-23.91-12v30.55L52.125,142.385z"
					/>
				<path fill="#A5692D" d="M74.825,62.675v-13.64c0-0.15-0.16-0.42-0.29-0.48l-6.28-3.19v13.55c0,0.15,0.16,0.42,0.3,0.49
					L74.825,62.675z M76.545,49.035v14.19c0,0.82-0.55,1.41-1.3,1.41c-0.24,0-0.48-0.06-0.71-0.18l-6.77-3.52
					c-0.7-0.37-1.23-1.23-1.23-2.02v-14.09c0-0.81,0.57-1.41,1.31-1.41c0.24,0,0.47,0.06,0.7,0.17l6.77,3.44
					C76.015,47.375,76.545,48.245,76.545,49.035z"/>
				<path fill="#A5692D" d="M74.825,187.965v-13.64c0-0.15-0.16-0.42-0.29-0.49l-6.28-3.18v13.55c0,0.15,0.16,0.42,0.3,0.49
					L74.825,187.965z M76.545,174.325v14.19c0,0.82-0.55,1.41-1.3,1.41c-0.24,0-0.48-0.06-0.72-0.19l-6.76-3.52
					c-0.7-0.36-1.23-1.22-1.23-2.01v-14.09c0-0.82,0.55-1.41,1.31-1.41c0.24,0,0.47,0.06,0.7,0.17l6.77,3.43
					C76.015,172.665,76.545,173.535,76.545,174.325z"/>
				<path fill="#A5692D" d="M38.825,125.175v-13.65c0-0.15-0.17-0.41-0.3-0.48l-6.28-3.19v13.56c0,0.15,0.17,0.42,0.3,0.49
					L38.825,125.175z M40.535,111.525v14.2c0,0.81-0.55,1.41-1.3,1.41c-0.24,0-0.48-0.07-0.71-0.19l-6.77-3.52
					c-0.7-0.36-1.22-1.23-1.22-2.01v-14.1c0-0.81,0.55-1.41,1.31-1.41c0.23,0,0.47,0.06,0.7,0.18l6.76,3.43
					C40.005,109.875,40.535,110.735,40.535,111.525z"/>
			</g>
			<g>
			</g>
		</g>
	</g>
</g>
</svg>
