<?xml version="1.0" encoding="utf-8"?>
<!-- Generator: Adobe Illustrator 18.1.1, SVG Export Plug-In . SVG Version: 6.00 Build 0)  -->
<svg version="1.1" xmlns="http://www.w3.org/2000/svg" xmlns:xlink="http://www.w3.org/1999/xlink" x="0px" y="0px"
	 viewBox="0 0 321.018 226.093" enable-background="new 0 0 321.018 226.093" xml:space="preserve">
<g id="Layer_1" display="none">
	<path display="inline" fill="#666F71" d="M36.036,106.676L8.755,93.04l12.25-6.166l27.365,13.636L36.036,106.676z M34.211,145.513
		L6.326,131.527V95.906l27.886,13.986V145.513z M36.036,79.401L63.393,93.04l-10.94,5.47L25.175,84.785L36.036,79.401z
		 M70.261,89.568L37.429,73.232c-0.879-0.434-1.827-0.521-2.787,0L2.148,89.473c-1.127,0.438-1.992,1.567-1.992,2.867v41.098
		c0,1.126,0.603,2.172,1.73,2.692l32.756,16.42c0.867,0.432,1.908,0.432,2.787,0l32.575-16.245c1.125-0.433,1.909-1.568,1.909-2.867
		V92.341C71.912,91.215,71.305,90.172,70.261,89.568"/>
	<path display="inline" fill="#666F71" d="M119.071,106.676L91.79,93.04l12.25-6.166l27.365,13.636L119.071,106.676z
		 M117.247,145.513l-27.886-13.985V95.906l27.886,13.986V145.513z M119.071,79.401l27.357,13.639l-10.94,5.47L108.21,84.785
		L119.071,79.401z M153.296,89.568l-32.832-16.335c-0.879-0.434-1.827-0.521-2.787,0L85.184,89.473
		c-1.127,0.438-1.992,1.567-1.992,2.867v41.098c0,1.126,0.603,2.172,1.73,2.692l32.756,16.42c0.867,0.432,1.908,0.432,2.787,0
		l32.575-16.245c1.125-0.433,1.909-1.568,1.909-2.867V92.341C154.947,91.215,154.34,90.172,153.296,89.568"/>
	<path display="inline" fill="#666F71" d="M202.106,106.676L174.825,93.04l12.25-6.166l27.365,13.636L202.106,106.676z
		 M200.282,145.513l-27.886-13.985V95.906l27.886,13.986V145.513z M202.106,79.401l27.357,13.639l-10.94,5.47l-27.278-13.724
		L202.106,79.401z M236.331,89.568l-32.832-16.335c-0.879-0.434-1.827-0.521-2.787,0l-32.493,16.241
		c-1.127,0.438-1.992,1.567-1.992,2.867v41.098c0,1.126,0.603,2.172,1.73,2.692l32.756,16.42c0.867,0.432,1.908,0.432,2.787,0
		l32.575-16.245c1.125-0.433,1.909-1.568,1.909-2.867V92.341C237.982,91.215,237.375,90.172,236.331,89.568"/>
	<path display="inline" fill="#666F71" d="M285.142,106.676L257.861,93.04l12.25-6.166l27.365,13.636L285.142,106.676z
		 M283.317,145.513l-27.886-13.985V95.906l27.886,13.986V145.513z M285.142,79.401l27.357,13.639l-10.94,5.47l-27.278-13.724
		L285.142,79.401z M319.367,89.568l-32.832-16.335c-0.879-0.434-1.827-0.521-2.787,0l-32.493,16.241
		c-1.127,0.438-1.992,1.567-1.992,2.867v41.098c0,1.126,0.603,2.172,1.73,2.692l32.756,16.42c0.867,0.432,1.908,0.432,2.787,0
		l32.575-16.245c1.125-0.433,1.909-1.568,1.909-2.867V92.341C321.018,91.215,320.411,90.172,319.367,89.568"/>
	<path display="inline" fill="#666F71" d="M77.865,33.803L50.585,20.166L62.834,14l27.365,13.636L77.865,33.803z M76.041,72.64
		L48.156,58.654V23.033l27.886,13.986V72.64z M77.865,6.528l27.357,13.639l-10.94,5.47L67.004,11.912L77.865,6.528z M112.09,16.694
		L79.258,0.359c-0.879-0.434-1.827-0.52-2.787,0L43.978,16.6c-1.127,0.438-1.992,1.567-1.992,2.867v41.098
		c0,1.126,0.603,2.172,1.73,2.692l32.756,16.42c0.867,0.432,1.908,0.432,2.787,0l32.575-16.245c1.125-0.433,1.909-1.568,1.909-2.867
		V19.467C113.742,18.341,113.134,17.299,112.09,16.694"/>
	<path display="inline" fill="#666F71" d="M77.865,179.895l-27.281-13.636l12.25-6.166l27.365,13.636L77.865,179.895z
		 M76.041,218.732l-27.886-13.985v-35.621l27.886,13.986V218.732z M77.865,152.62l27.357,13.639l-10.94,5.47l-27.278-13.724
		L77.865,152.62z M112.09,162.786l-32.832-16.335c-0.879-0.434-1.827-0.521-2.787,0l-32.493,16.241
		c-1.127,0.438-1.992,1.567-1.992,2.867v41.098c0,1.126,0.603,2.172,1.73,2.692l32.756,16.42c0.867,0.432,1.908,0.432,2.787,0
		l32.575-16.245c1.125-0.433,1.909-1.568,1.909-2.867V165.56C113.742,164.434,113.134,163.391,112.09,162.786"/>
	<path display="inline" fill="#666F71" d="M161.057,33.803l-27.281-13.636L146.026,14l27.365,13.636L161.057,33.803z M159.233,72.64
		l-27.886-13.985V23.033l27.886,13.986V72.64z M161.057,6.528l27.357,13.639l-10.94,5.47l-27.278-13.724L161.057,6.528z
		 M195.282,16.694L162.45,0.359c-0.879-0.434-1.827-0.52-2.787,0L127.17,16.6c-1.127,0.438-1.992,1.567-1.992,2.867v41.098
		c0,1.126,0.603,2.172,1.73,2.692l32.756,16.42c0.867,0.432,1.908,0.432,2.787,0l32.575-16.245c1.125-0.433,1.909-1.568,1.909-2.867
		V19.467C196.933,18.341,196.326,17.299,195.282,16.694"/>
	<path display="inline" fill="#666F71" d="M244.248,33.803l-27.281-13.636L229.217,14l27.365,13.636L244.248,33.803z M242.424,72.64
		l-27.886-13.985V23.033l27.886,13.986V72.64z M244.248,6.528l27.357,13.639l-10.94,5.47l-27.278-13.724L244.248,6.528z
		 M278.473,16.694L245.641,0.359c-0.879-0.434-1.827-0.52-2.787,0L210.361,16.6c-1.127,0.438-1.992,1.567-1.992,2.867v41.098
		c0,1.126,0.603,2.172,1.73,2.692l32.756,16.42c0.867,0.432,1.908,0.432,2.787,0l32.575-16.245c1.125-0.433,1.909-1.568,1.909-2.867
		V19.467C280.124,18.341,279.517,17.299,278.473,16.694"/>
	<path display="inline" fill="#666F71" d="M161.057,179.895l-27.281-13.636l12.25-6.166l27.365,13.636L161.057,179.895z
		 M159.233,218.732l-27.886-13.985v-35.621l27.886,13.986V218.732z M161.057,152.62l27.357,13.639l-10.94,5.47l-27.278-13.724
		L161.057,152.62z M195.282,162.786l-32.832-16.335c-0.879-0.434-1.827-0.521-2.787,0l-32.493,16.241
		c-1.127,0.438-1.992,1.567-1.992,2.867v41.098c0,1.126,0.603,2.172,1.73,2.692l32.756,16.42c0.867,0.432,1.908,0.432,2.787,0
		l32.575-16.245c1.125-0.433,1.909-1.568,1.909-2.867V165.56C196.933,164.434,196.326,163.391,195.282,162.786"/>
	<path display="inline" fill="#666F71" d="M244.248,179.895l-27.281-13.636l12.25-6.166l27.365,13.636L244.248,179.895z
		 M242.424,218.732l-27.886-13.985v-35.621l27.886,13.986V218.732z M244.248,152.62l27.357,13.639l-10.94,5.47l-27.278-13.724
		L244.248,152.62z M278.473,162.786l-32.832-16.335c-0.879-0.434-1.827-0.521-2.787,0l-32.493,16.241
		c-1.127,0.438-1.992,1.567-1.992,2.867v41.098c0,1.126,0.603,2.172,1.73,2.692l32.756,16.42c0.867,0.432,1.908,0.432,2.787,0
		l32.575-16.245c1.125-0.433,1.909-1.568,1.909-2.867V165.56C280.124,164.434,279.517,163.391,278.473,162.786"/>
	<g display="inline">
		<path fill="none" stroke="#666F71" stroke-width="2" stroke-miterlimit="10" d="M61.525,53.208c0,0.55-0.399,0.792-0.887,0.539
			l-7.892-4.105c-0.488-0.254-0.887-0.911-0.887-1.461V31.746c0-0.55,0.401-0.796,0.892-0.547l7.883,4.003
			c0.49,0.249,0.892,0.903,0.892,1.453V53.208z"/>
	</g>
	<g display="inline">
		<path fill="none" stroke="#666F71" stroke-width="2" stroke-miterlimit="10" d="M61.525,53.208c0,0.55-0.399,0.792-0.887,0.539
			l-7.892-4.105c-0.488-0.254-0.887-0.911-0.887-1.461V31.746c0-0.55,0.401-0.796,0.892-0.547l7.883,4.003
			c0.49,0.249,0.892,0.903,0.892,1.453V53.208z"/>
	</g>
</g>
<g id="Layer_2">
	<path fill="#324040" d="M292.885,164.475l-7.47-16.76c-0.31-0.66-0.78-1.19-1.4-1.59c-0.62-0.4-1.3-0.6-2.02-0.6h-37.37
		c-0.72,0-1.39,0.2-2.01,0.6c-0.63,0.4-1.09,0.93-1.41,1.59l-7.47,16.76c-0.22,0.57-0.32,1.08-0.32,1.55v0.06v7.48
		c0,1.03,0.36,1.91,1.09,2.64c0.73,0.73,1.61,1.09,2.65,1.09v24.3c0,1.03,0.36,1.91,1.09,2.64c0.73,0.73,1.61,1.09,2.64,1.09h3.74
		c1.03,0,1.91-0.36,2.64-1.09s1.1-1.61,1.1-2.64v-18.69h5.6v18.69c0,1.03,0.37,1.91,1.1,2.64c0.73,0.73,1.61,1.09,2.64,1.09h28.03
		c1.03,0,1.91-0.36,2.64-1.09c0.73-0.73,1.1-1.61,1.1-2.64v-24.3c1.03,0,1.91-0.36,2.64-1.09c0.73-0.73,1.1-1.61,1.1-2.64v-7.48
		v-0.06C293.215,165.555,293.105,165.045,292.885,164.475z"/>
	<g id="XMLID_1_">
		<g>
			<path fill="#67AFAF" d="M227.296,75.095c3.71,5.28,5.68,11.48,5.68,17.94c0,17.18-13.98,31.16-31.16,31.16h-84.57
				c-14.73,0-26.71-11.98-26.71-26.71c0-11.81,7.7-21.85,18.35-25.36c-0.36-1.91-0.55-3.84-0.55-5.79
				c0-17.19,13.98-31.16,31.16-31.16c4.54,0,8.98,1,13.02,2.86c1.98-3.88,4.64-7.43,7.9-10.48c7.02-6.57,16.19-10.19,25.82-10.19
				c20.86,0,37.84,16.97,37.84,37.84c0,4.74-0.87,9.36-2.56,13.69C223.696,70.675,225.636,72.755,227.296,75.095z M224.076,93.035
				c0-9.53-6-17.67-14.43-20.83c3.47-4.78,5.52-10.65,5.52-17c0-15.98-12.95-28.94-28.93-28.94c-15.27,0-27.77,11.83-28.85,26.83
				c-4.05-5.47-10.56-9.02-17.89-9.02c-12.29,0-22.25,9.96-22.25,22.26c0,5.34,1.88,10.24,5.01,14.07
				c-1.59-0.47-3.27-0.72-5.01-0.72c-9.84,0-17.81,7.97-17.81,17.8c0,9.84,7.97,17.81,17.81,17.81h84.57
				C214.106,115.295,224.076,105.325,224.076,93.035z"/>
			<path fill="#FFFFFF" d="M209.646,72.205c8.43,3.16,14.43,11.3,14.43,20.83c0,12.29-9.97,22.26-22.26,22.26h-84.57
				c-9.84,0-17.81-7.97-17.81-17.81c0-9.83,7.97-17.8,17.81-17.8c1.74,0,3.42,0.25,5.01,0.72c-3.13-3.83-5.01-8.73-5.01-14.07
				c0-12.3,9.96-22.26,22.25-22.26c7.33,0,13.84,3.55,17.89,9.02c1.08-15,13.58-26.83,28.85-26.83c15.98,0,28.93,12.96,28.93,28.94
				C215.166,61.555,213.116,67.425,209.646,72.205z"/>
		</g>
	</g>
	<g>
		<path fill="#85BFBF" d="M230.414,185.127h-5v-3h5V185.127z M222.414,185.127h-5v-3h5V185.127z M214.414,185.127h-5v-3h5V185.127z
			 M206.414,185.127h-5v-3h5V185.127z M198.414,185.127h-5v-3h5V185.127z M190.414,185.127h-5v-3h5V185.127z M182.414,185.127
			h-4.999v-3h4.999V185.127z M174.415,185.127h-5v-3h5V185.127z M166.415,185.127h-5v-3h5V185.127z M158.415,185.127h-5v-3h5
			V185.127z M150.415,185.127h-5v-3h5V185.127z M142.415,185.127h-5v-3h5V185.127z M134.415,185.127h-5v-3h5V185.127z
			 M126.415,185.127h-5v-3h5V185.127z M118.415,185.127h-5v-3h5V185.127z M110.415,185.127h-5v-3h5V185.127z M102.415,185.127h-5v-3
			h5V185.127z M94.415,185.127h-5v-3h5V185.127z M86.415,185.127h-5v-3h5V185.127z"/>
	</g>
	<g>
		<path fill="#85BFBF" d="M163.256,179.679h-3v-5h3V179.679z M163.256,171.679h-3v-5h3V171.679z M163.256,163.679h-3v-5h3V163.679z
			 M163.256,155.679h-3v-5h3V155.679z M163.256,147.679h-3v-5h3V147.679z M163.256,139.679h-3v-5h3V139.679z M163.256,131.679h-3v-5
			h3V131.679z"/>
	</g>
	<rect x="132.441" y="78.408" fill="#244A4A" width="8.696" height="25.508"/>
	<rect x="146.3" y="64.902" fill="#244A4A" width="8.696" height="39.014"/>
	<rect x="160.159" y="70.782" fill="#244A4A" width="8.696" height="33.134"/>
	<rect x="174.018" y="91.162" fill="#244A4A" width="8.696" height="12.754"/>
	<rect x="187.877" y="55.272" fill="#244A4A" width="8.696" height="48.643"/>
	<g id="XMLID_3_">
		<g>
			<polygon fill="#7D2F2F" points="289.475,167.955 289.475,173.565 285.735,173.565 240.885,173.565 237.155,173.565 
				237.155,167.955 			"/>
			<polygon fill="#A63F3F" points="281.995,149.265 289.475,166.085 279.925,166.085 274.205,149.265 			"/>
			<path fill="#EFFEFE" d="M285.735,175.425v26.17h-28.03v-22.43h-13.08v22.43h-3.74v-26.17H285.735z M281.995,197.855v-18.69
				h-20.55v18.69H281.995z"/>
			<rect x="261.445" y="179.165" fill="#324040" width="20.55" height="18.69"/>
			<polygon fill="#A63F3F" points="272.245,149.265 277.995,166.085 264.245,166.085 264.245,149.265 			"/>
			<polygon fill="#A63F3F" points="262.375,149.265 262.375,166.085 248.565,166.085 254.375,149.265 			"/>
			<polygon fill="#A63F3F" points="252.425,149.265 246.695,166.085 237.155,166.085 244.625,149.265 			"/>
		</g>
		<g>
		</g>
	</g>
	<g id="XMLID_2_">
		<g>
			<path fill="#324040" d="M87.615,150.405v3.66c0,1.02-0.36,1.88-1.07,2.59c-0.72,0.72-1.58,1.08-2.59,1.08h-1.89l-8.51,32.06
				c-0.05,0.23-0.21,0.6-0.45,1.12c1.12,1.62,1.68,3.38,1.68,5.29c0,2.52-0.89,4.68-2.69,6.47c-1.79,1.79-3.95,2.69-6.47,2.69
				c-2.51,0-4.67-0.9-6.46-2.69c-1.8-1.79-2.7-3.95-2.7-6.47c0-1.33,0.26-2.56,0.78-3.66h-8.88c0.52,1.1,0.78,2.33,0.78,3.66
				c0,2.52-0.9,4.68-2.69,6.47c-1.8,1.79-3.96,2.69-6.47,2.69c-2.52,0-4.68-0.9-6.47-2.69c-1.8-1.79-2.69-3.95-2.69-6.47
				c0-1.6,0.41-3.13,1.23-4.58c-0.82-0.71-1.23-1.62-1.23-2.75v-3.66c0-1.39,0.63-2.46,1.88-3.21l-3.66-25.39
				c-0.04-0.13-0.06-0.37-0.06-0.71c0-1.02,0.36-1.88,1.08-2.59c0.71-0.72,1.58-1.08,2.59-1.08h39.39l0.71-2.75
				c0.23-0.82,0.68-1.48,1.33-1.99c0.66-0.5,1.4-0.75,2.22-0.75h7.65c1.01,0,1.87,0.35,2.59,1.07
				C87.255,148.525,87.615,149.395,87.615,150.405z M83.955,154.065v-3.66h-7.65l-9.24,34.81h-32.58v3.66h35.52l9.22-34.81H83.955z
				 M69.295,163.225l1.69-7.32h-12.68v7.32H69.295z M71.125,196.205c0-1.51-0.54-2.8-1.62-3.88c-1.07-1.08-2.37-1.61-3.88-1.61
				c-1.5,0-2.8,0.53-3.87,1.61c-1.08,1.08-1.62,2.37-1.62,3.88c0,1.51,0.54,2.8,1.62,3.88c1.07,1.08,2.37,1.62,3.87,1.62
				c1.51,0,2.81-0.54,3.88-1.62C70.585,199.005,71.125,197.715,71.125,196.205z M67.145,172.385l1.63-7.32h-10.47v7.32H67.145z
				 M64.975,181.545l1.63-7.32h-8.3v7.32H64.975z M56.465,181.545v-7.32h-10.99v7.32H56.465z M56.465,172.385v-7.32h-10.99v7.32
				H56.465z M56.465,163.225v-7.32h-10.99v7.32H56.465z M45.475,196.205c0-1.51-0.54-2.8-1.62-3.88c-1.07-1.08-2.37-1.61-3.87-1.61
				c-1.51,0-2.8,0.53-3.88,1.61c-1.08,1.08-1.62,2.37-1.62,3.88c0,1.51,0.54,2.8,1.62,3.88c1.08,1.08,2.37,1.62,3.88,1.62
				c1.5,0,2.8-0.54,3.87-1.62C44.935,199.005,45.475,197.715,45.475,196.205z M43.645,181.545v-7.32h-8.44l1.11,7.32H43.645z
				 M43.645,172.385v-7.32h-9.56l0.86,7.32H43.645z M43.645,163.225v-7.32h-10.99l1.11,7.32H43.645z"/>
			<polygon fill="#DFE8E8" points="83.955,150.405 83.955,154.065 79.225,154.065 70.005,188.875 34.485,188.875 34.485,185.215 
				67.065,185.215 76.305,150.405 			"/>
			<path fill="#DFE8E8" d="M69.505,192.325c1.08,1.08,1.62,2.37,1.62,3.88c0,1.51-0.54,2.8-1.62,3.88
				c-1.07,1.08-2.37,1.62-3.88,1.62c-1.5,0-2.8-0.54-3.87-1.62c-1.08-1.08-1.62-2.37-1.62-3.88c0-1.51,0.54-2.8,1.62-3.88
				c1.07-1.08,2.37-1.61,3.87-1.61C67.135,190.715,68.435,191.245,69.505,192.325z"/>
			<path fill="#DFE8E8" d="M43.855,192.325c1.08,1.08,1.62,2.37,1.62,3.88c0,1.51-0.54,2.8-1.62,3.88
				c-1.07,1.08-2.37,1.62-3.87,1.62c-1.51,0-2.8-0.54-3.88-1.62c-1.08-1.08-1.62-2.37-1.62-3.88c0-1.51,0.54-2.8,1.62-3.88
				c1.08-1.08,2.37-1.61,3.88-1.61C41.485,190.715,42.785,191.245,43.855,192.325z"/>
		</g>
		<g>
		</g>
	</g>
</g>
</svg>
